<svg width="197" height="70" viewBox="0 0 197 70" fill="none" xmlns="http://www.w3.org/2000/svg">
<g id="Logo">
<path id="Vector 2" d="M6.63181 43.0618C5.4053 44.1081 2.65792 45.824 1.48047 44.3173V31.7616L2.21637 21.717L2.95228 17.3225L3.68819 12.3002L4.42409 7.90566L5.16 6.0223L5.8959 5.39451L7.36772 4.76672L8.83953 4.13894L10.3113 3.51115L11.0472 2.25557L11.7832 1.62779L19.1422 1L19.8781 10.4168L20.614 15.4391C23.1897 22.6587 22.8217 21.0892 26.822 18.578C29.4449 15.4391 34.1227 6.91941 36.804 5.39451H39.7476C42.3232 6.33619 48.8728 6.0223 48.5784 8.53345V16.6947L47.8425 21.0892L47.1066 24.2281L46.3707 27.9949L45.6348 31.7616C41.5873 37.7256 30.5488 48.3979 25.7654 45.5729" stroke="black"/>
<path id="Vector 10" d="M103.771 63.151L104.139 60.0121C104.728 59.5099 107.451 59.6982 107.083 60.0121V61.2677H111.131V60.0121C112.602 58.2543 113.706 59.2797 114.074 60.0121V62.5232H111.866L111.131 66.29C111.131 68.0478 107.819 66.9177 108.187 66.29C108.187 64.4066 106.347 64.0927 105.979 65.6622C105.691 66.8934 104.017 65.9761 103.771 65.6622V63.151Z" fill="#ED4545" stroke="black"/>
<path id="Vector 11" d="M136.887 60.3259L140.566 56.2452H142.406L142.038 59.0703L141.302 59.6981H140.566V61.2675L139.095 61.8953L139.83 62.5231L140.934 61.2675H142.774L143.142 61.8953V65.0343C143.878 65.3482 141.302 68.1732 140.934 66.2898C140.64 64.7831 139.217 65.6621 138.727 66.2898C136.666 69.0521 135.66 67.4408 135.415 66.2898V63.1509L136.151 61.8953L136.887 60.3259Z" fill="#ED4545" stroke="black"/>
<g id="Vector 12">
<path d="M147.926 60.012L149.398 58.7564V57.5009H147.19L145.718 58.1286V58.7564V59.3842L146.454 60.012H147.926Z" fill="#ED4545"/>
<path d="M149.398 60.6398H147.19H146.822V61.2676H146.086V61.8954H145.35V62.5232H144.614V63.1509V64.4065L145.35 65.0343L145.718 65.6621L146.086 66.2899H147.19V66.9177H147.926L149.03 66.2899V62.5232H149.398V60.6398Z" fill="#ED4545"/>
<path d="M162.276 61.2676V62.5232H163.38V63.1509H164.116V63.7787V64.7204H163.748V65.3482H163.38H163.012H162.644V65.6621H162.276V65.976H161.54V66.2899H160.804V66.6038H160.068H159.7H159.332V66.2899H160.068V65.3482V64.7204H159.332V64.4065H158.596V63.7787V63.1509H157.861V62.5232V61.8954H158.596V61.2676H158.964H159.332V60.6398H159.7H160.436V60.012H161.908V59.3842H163.38V60.012H164.116V60.6398H163.38V61.2676H162.276Z" fill="#ED4545"/>
<path d="M147.926 60.012L149.398 58.7564V57.5009H147.19L145.718 58.1286V58.7564V59.3842L146.454 60.012H147.926Z" stroke="black"/>
<path d="M149.398 60.6398H147.19H146.822V61.2676H146.086V61.8954H145.35V62.5232H144.614V63.1509V64.4065L145.35 65.0343L145.718 65.6621L146.086 66.2899H147.19V66.9177H147.926L149.03 66.2899V62.5232H149.398V60.6398Z" stroke="black"/>
<path d="M162.276 61.2676V62.5232H163.38V63.1509H164.116V63.7787V64.7204H163.748V65.3482H163.38H163.012H162.644V65.6621H162.276V65.976H161.54V66.2899H160.804V66.6038H160.068H159.7H159.332V66.2899H160.068V65.3482V64.7204H159.332V64.4065H158.596V63.7787V63.1509H157.861V62.5232V61.8954H158.596V61.2676H158.964H159.332V60.6398H159.7H160.436V60.012H161.908V59.3842H163.38V60.012H164.116V60.6398H163.38V61.2676H162.276Z" stroke="black"/>
</g>
<g id="Vector 6">
<path d="M46.3709 61.5814L50.7863 56.2452H52.6261L52.2581 59.0703L51.5222 60.012L50.0504 61.2675V62.5231L51.1543 61.5814C52.6261 61.0792 53.2393 61.5814 53.362 61.8953V65.9759L52.6261 66.6037H51.8902L51.1543 65.9759L50.4184 65.3482H49.6825L48.5786 66.2898C46.2237 69.0521 46.0029 67.4408 46.0029 66.2898V63.1509L46.3709 61.5814Z" fill="#ED4545"/>
<path d="M55.9377 65.0343C52.6997 63.2765 56.0603 61.3722 58.1454 60.6398H59.6172L59.2492 63.7787L58.8813 66.2898L58.1454 66.6037L56.3056 66.2898L55.9377 65.0343Z" fill="#ED4545"/>
<path d="M46.3709 61.5814L50.7863 56.2452H52.6261L52.2581 59.0703L51.5222 60.012L50.0504 61.2675V62.5231L51.1543 61.5814C52.6261 61.0792 53.2393 61.5814 53.362 61.8953V65.9759L52.6261 66.6037H51.8902L51.1543 65.9759L50.4184 65.3482H49.6825L48.5786 66.2898C46.2237 69.0521 46.0029 67.4408 46.0029 66.2898V63.1509L46.3709 61.5814Z" stroke="black"/>
<path d="M55.9377 65.0343C52.6997 63.2765 56.0603 61.3722 58.1454 60.6398H59.6172L59.2492 63.7787L58.8813 66.2898L58.1454 66.6037L56.3056 66.2898L55.9377 65.0343Z" stroke="black"/>
</g>
<path id="Vector 7" d="M56.6734 60.012L58.1452 59.6981L59.617 58.7564V57.5009H57.4093C57.1149 57.5009 56.6734 57.9194 56.3055 58.1286L55.9375 59.3842L56.6734 60.012Z" fill="#ED4545" stroke="black"/>
<g id="Vector 3">
<path d="M32.3883 20.1475C25.7652 32.3894 12.8868 42.7479 8.83932 23.2865L8.10341 27.9949L7.3675 32.3894L6.6316 43.6896C5.65039 44.3173 3.17284 45.3218 1.1123 44.3173L1.48026 31.7616L2.21616 21.717L2.95207 17.0086L3.68798 12.3002L4.79183 6.02232L8.83932 4.45285L10.3111 3.51117L11.415 2.25559L14.7266 1.62781H19.142L19.8779 10.7307L20.6138 15.4391L20.9818 17.0086C21.2271 19.6244 23.1159 23.3493 27.237 17.3225L30.1806 14.4974L32.3883 11.3585L36.4358 5.70843H39.7474C43.0589 5.81306 49.4613 6.65011 48.5782 9.16126L48.9462 16.6947L47.1064 24.2282L45.6346 31.7616C42.691 36.7839 31.358 46.389 25.7652 45.8868V43.6896L29.4447 32.3894C29.9353 31.5523 30.4259 29.5643 30.9165 27.3671C31.4071 25.1698 32.3883 20.6498 32.3883 20.1475Z" fill="#ED4545"/>
<path d="M36.4358 5.70843L32.3883 11.3585L30.1806 14.4974M36.4358 5.70843L30.1806 14.4974M36.4358 5.70843H39.7474C43.0589 5.81306 49.4613 6.65011 48.5782 9.16126L48.9462 16.6947L47.1064 24.2282L45.6346 31.7616C42.691 36.7839 31.358 46.389 25.7651 45.8868V43.6896L29.4447 32.3894C29.9353 31.5523 30.4259 29.5643 30.9165 27.3671C31.4071 25.1698 32.3883 20.6498 32.3883 20.1475C25.7651 32.3894 12.8868 42.7479 8.83932 23.2865L8.10341 27.9949L7.3675 32.3894L6.6316 43.6896C5.65039 44.3173 3.17284 45.3218 1.1123 44.3173L1.48026 31.7616L2.21616 21.717L2.95207 17.0086L3.68798 12.3002L4.79183 6.02232L8.83932 4.45285L10.3111 3.51117L11.415 2.25559L14.7266 1.62781H19.142L19.8779 10.7307L20.6138 15.4391L20.9818 17.0086C21.2271 19.6244 23.1159 23.3493 27.237 17.3225L30.1806 14.4974" stroke="black"/>
</g>
<path id="Vector 4" d="M71.0231 36.7839V33.6449C71.0231 33.1427 67.589 34.2727 65.872 34.9005L63.2963 35.5283L61.0886 35.8422L59.2488 35.5283L59.9847 33.6449C59.9847 31.8871 64.7681 28.8319 66.6079 27.9948C65.4304 31.5105 68.5703 30.9245 70.2874 30.1921L71.0231 27.9948V20.1475L64.032 17.6364H61.0886C51.9633 22.6587 44.8985 33.6449 52.6257 39.9228C55.2013 43.6895 61.8243 43.0617 64.032 41.8062C64.8066 41.3657 69.0607 38.5626 71.0231 36.7839Z" fill="#ED4545" stroke="black"/>
<g id="Vector 5">
<path d="M116.649 22.3448H103.403C105.243 12.6141 106.714 13.6414 109.29 13.2419C113.338 12.6141 115.965 11.9863 116.281 14.1835V17.9503C116.281 18.7036 116.772 18.8919 117.017 18.8919C119.372 19.6453 122.414 13.765 123.64 10.7307V5.39451C122.757 2.63225 119.593 2.15094 118.121 2.25557H107.45C105.684 3.76226 104.507 1 104.139 1H100.827L100.091 1.62779L94.2041 5.39451L89.4207 6.65009C87.9752 7.90566 88.3187 8.07175 88.3168 9.16124C88.3149 10.2507 89.0058 11.6724 89.7886 11.6724V19.2058L86.845 38.6672V41.8062C86.845 42.3084 88.8074 42.434 89.7886 42.434V46.2007L91.6284 47.1424C92.4606 47.1424 95.6759 40.5506 98.6195 35.2144C100.091 33.0172 100.459 33.0172 104.875 32.3894C107.985 30.5785 112.829 30.1196 115.965 29.8836C119.595 30.5029 119.952 28.9789 120.667 25.9246L120.697 25.7976C121.285 23.2865 118.244 22.4494 116.649 22.3448Z" fill="#ED4545"/>
<path d="M144.246 23.6003V32.3894L137.623 37.4117C139.83 38.0395 139.462 39.3997 139.462 39.9228L134.311 43.0618H128.424C125.186 42.5595 125.603 39.5043 126.216 38.3533L132.471 30.1921V28.9365C126.878 26.9276 127.32 26.4254 124.744 24.8559V20.1475C124.744 17.6364 125.603 16.6947 126.216 16.6947C130.999 17.3225 145.717 20.1475 144.246 23.6003Z" fill="#ED4545"/>
<path d="M154.548 19.8336H160.436L159.7 31.1338L168.531 17.3225C170.297 14.8113 172.21 15.8576 172.946 16.6947V24.2281L167.795 37.4117L164.115 43.3756L150.501 52.7925C146.674 54.048 146.699 51.4323 147.189 49.9674L152.341 41.8062C154.696 40.0484 153.322 38.9811 152.341 38.6672L148.661 34.9005L147.925 32.3894L148.661 24.2281C148.661 21.2148 152.586 20.0429 154.548 19.8336Z" fill="#ED4545"/>
<path d="M178.833 40.5506V44.3173L188.032 40.5506L192.815 36.47C197.231 33.2055 194.901 29.7736 193.183 28.6226L187.664 26.1115L188.032 24.8559L196.495 19.8336C196.495 18.2642 193.919 15.753 191.712 16.0669C188.474 15.8158 178.097 20.7753 174.418 24.2281L175.154 30.1921C175.448 35.2144 180.182 36.3654 182.513 36.1561V37.4117L178.833 40.5506Z" fill="#ED4545"/>
<path d="M36.8034 62.2093H44.1625C45.2663 62.1046 46.9589 62.272 44.8984 63.7787L43.0586 64.7204V66.2899H35.3316C34.9637 65.976 34.1542 65.0343 33.8598 63.7787C33.5654 62.5232 33.7371 60.9537 33.8598 60.3259C34.841 58.9657 38.0546 55.9942 43.0586 54.9897C47.8679 54.0244 45.4995 57.5123 44.8165 58.463C44.844 58.4561 44.8713 58.4493 44.8984 58.4425C44.5582 58.8053 44.6112 58.7488 44.8165 58.463C41.8498 59.2076 36.2202 60.9652 36.8034 62.2093Z" fill="#ED4545"/>
<path d="M116.649 22.3448H103.403C105.243 12.6141 106.714 13.6414 109.29 13.2419C113.338 12.6141 115.965 11.9863 116.281 14.1835V17.9503C116.281 18.7036 116.772 18.8919 117.017 18.8919C119.372 19.6453 122.414 13.765 123.64 10.7307V5.39451C122.757 2.63225 119.593 2.15094 118.121 2.25557H107.45C105.684 3.76226 104.507 1 104.139 1H100.827L100.091 1.62779L94.2041 5.39451L89.4207 6.65009C87.9752 7.90566 88.3187 8.07175 88.3168 9.16124C88.3149 10.2507 89.0058 11.6724 89.7886 11.6724V19.2058L86.845 38.6672V41.8062C86.845 42.3084 88.8074 42.434 89.7886 42.434V46.2007L91.6284 47.1424C92.4606 47.1424 95.6759 40.5506 98.6195 35.2144C100.091 33.0172 100.459 33.0172 104.875 32.3894C107.985 30.5785 112.829 30.1196 115.965 29.8836C119.595 30.5029 119.952 28.9789 120.667 25.9246L120.697 25.7976C121.285 23.2865 118.244 22.4494 116.649 22.3448Z" stroke="black"/>
<path d="M144.246 23.6003V32.3894L137.623 37.4117C139.83 38.0395 139.462 39.3997 139.462 39.9228L134.311 43.0618H128.424C125.186 42.5595 125.603 39.5043 126.216 38.3533L132.471 30.1921V28.9365C126.878 26.9276 127.32 26.4254 124.744 24.8559V20.1475C124.744 17.6364 125.603 16.6947 126.216 16.6947C130.999 17.3225 145.717 20.1475 144.246 23.6003Z" stroke="black"/>
<path d="M154.548 19.8336H160.436L159.7 31.1338L168.531 17.3225C170.297 14.8113 172.21 15.8576 172.946 16.6947V24.2281L167.795 37.4117L164.115 43.3756L150.501 52.7925C146.674 54.048 146.699 51.4323 147.189 49.9674L152.341 41.8062C154.696 40.0484 153.322 38.9811 152.341 38.6672L148.661 34.9005L147.925 32.3894L148.661 24.2281C148.661 21.2148 152.586 20.0429 154.548 19.8336Z" stroke="black"/>
<path d="M178.833 40.5506V44.3173L188.032 40.5506L192.815 36.47C197.231 33.2055 194.901 29.7736 193.183 28.6226L187.664 26.1115L188.032 24.8559L196.495 19.8336C196.495 18.2642 193.919 15.753 191.712 16.0669C188.474 15.8158 178.097 20.7753 174.418 24.2281L175.154 30.1921C175.448 35.2144 180.182 36.3654 182.513 36.1561V37.4117L178.833 40.5506Z" stroke="black"/>
<path d="M36.8034 62.2093H44.1625C45.2663 62.1046 46.9589 62.272 44.8984 63.7787L43.0586 64.7204V66.2899H35.3316C34.9637 65.976 34.1542 65.0343 33.8598 63.7787C33.5654 62.5232 33.7371 60.9537 33.8598 60.3259C34.841 58.9657 38.0546 55.9942 43.0586 54.9897C47.8679 54.0244 45.4995 57.5123 44.8165 58.463C44.844 58.4561 44.8713 58.4493 44.8984 58.4425C44.5582 58.8053 44.6112 58.7488 44.8165 58.463C41.8498 59.2076 36.2202 60.9652 36.8034 62.2093Z" stroke="black"/>
</g>
<path id="Vector 13" d="M135.047 58.1287V55.3037C135.047 53.7342 125.848 56.5592 124.009 60.0121C122.537 62.7743 124.131 65.139 125.113 65.976H132.472C134.827 63.9671 135.047 62.5232 134.311 62.2093H128.424C123.641 61.8954 130.264 59.3843 135.047 58.1287Z" fill="#ED4545" stroke="black"/>
<path id="Vector 8" d="M60.7207 65.6622V61.8954C65.7249 57.6265 66.4853 60.1167 66.24 61.8954V63.151H64.0323V63.7788H63.2964V65.0344H64.7682V64.4066H66.24C66.5344 65.1599 65.5041 66.6038 64.7682 66.6038H61.4566L60.7207 65.6622Z" fill="#ED4545" stroke="black"/>
<g id="Vector 9">
<path d="M72.1271 58.7563L71.3912 61.2675L74.3349 58.4425H75.4387V60.012L73.231 61.8953V63.7787L75.0708 65.0343C75.3651 66.0387 74.7028 66.7084 74.3349 66.9176H72.1271L71.3912 65.9759H69.1835V66.9176C67.7117 67.1687 67.3438 67.0222 67.3438 66.9176V62.5231L68.0797 61.8953L68.8156 60.012L69.1835 58.7563L69.5515 57.5007C69.8458 55.7429 72.1271 54.9897 72.863 55.6175V57.5007L72.1271 58.7563Z" fill="#ED4545"/>
<path d="M82.4298 60.9536V62.5231H81.6939L80.958 63.7787L79.8541 64.4065V65.662H80.958V65.0343H82.4298V65.662C80.6636 68.4243 76.9105 66.9176 76.1746 65.662V61.8953C76.5426 61.2675 76.9105 60.3258 78.0144 60.012H80.2221C81.1052 60.012 82.4298 60.6397 82.4298 60.9536Z" fill="#ED4545"/>
<path d="M91.2607 61.8953V66.2898V66.6037H89.4209H88.685V65.9759H87.9491V65.662V64.4065H87.5812H86.4773V64.7204V65.3481H85.7414V65.9759H83.9016L83.5337 65.3481V62.837H84.2696V59.6981H84.6375H87.2132V60.012V61.8953C87.2132 61.8953 91.2607 61.5814 91.2607 61.8953Z" fill="#ED4545"/>
<path d="M99.7236 60.012C99.1349 62.5231 99.9689 62.7324 100.46 62.5231C100.754 62.5231 101.809 62.1046 102.299 61.8953V60.012C101.122 58.5053 100.092 59.3842 99.7236 60.012Z" fill="#ED4545"/>
<path d="M150.869 60.012L154.549 57.8147C155.137 57.4631 155.039 58.9238 154.917 59.6981C160.804 60.2003 156.634 64.3018 153.813 66.2898L152.709 68.801C151.826 69.5543 151.114 69.1149 150.869 68.801V63.7787C149.397 63.5276 150.256 61.1629 150.869 60.012Z" fill="#ED4545"/>
<path d="M153.813 63.1509C153.813 63.1509 153.813 63.9161 153.813 64.4065H154.549L154.917 63.7787L154.181 63.1509M71.3912 61.2675L72.1271 58.7563L72.863 57.5007V55.6175C72.1271 54.9897 69.8458 55.7429 69.5515 57.5007L69.1835 58.7563L68.8156 60.012L68.0797 61.8953L67.3438 62.5231V66.9176C67.3438 67.0222 67.7117 67.1687 69.1835 66.9176V65.9759H71.3912L72.1271 66.9176H74.3349C74.7028 66.7083 75.3651 66.0387 75.0708 65.0343L73.231 63.7787V61.8953L75.4387 60.012V58.4425H74.3349L71.3912 61.2675ZM82.4298 62.5231V60.9536C82.4298 60.6397 81.1052 60.012 80.2221 60.012H78.0144C76.9105 60.3258 76.5426 61.2675 76.1746 61.8953V65.662C76.9105 66.9176 80.6636 68.4243 82.4298 65.662V65.0343H80.958V65.662H79.8541V64.4065L80.958 63.7787L81.6939 62.5231H82.4298ZM91.2607 66.2898C91.2607 66.2898 91.2607 62.2092 91.2607 61.8953C91.2607 61.5814 87.2132 61.8953 87.2132 61.8953V60.012V59.6981H84.6375H84.2696V62.837H83.5337V65.3481L83.9016 65.9759H85.7414V65.3481H86.4773V64.7204V64.4065H87.5812H87.9491V65.662V65.9759H88.685V66.6037H89.4209H91.2607V66.2898ZM100.46 62.5231C99.9689 62.7324 99.1349 62.5231 99.7236 60.012C100.092 59.3842 101.122 58.5053 102.299 60.012V61.8953C101.809 62.1046 100.754 62.5231 100.46 62.5231ZM154.549 57.8147L150.869 60.012C150.256 61.1629 149.397 63.5276 150.869 63.7787V68.801C151.114 69.1149 151.826 69.5543 152.709 68.801L153.813 66.2898C156.634 64.3018 160.804 60.2003 154.917 59.6981C155.039 58.9238 155.137 57.4631 154.549 57.8147Z" stroke="black"/>
</g>
</g>
</svg>
